# xmcd CD database file
#
# Track frame offsets:
#	150
#	25092
#	45607
#
# Disc length: 938 seconds
#
# Revision: 0
# Processed by: cddbd v1.5.1PL0 Copyright (c) Steve Scherf et al.
# Submitted via: CDex 1.51
#
DISCID=1a03a803
DTITLE=吉田朋代 - 冬が来た
DYEAR=1994
DGENRE=JPop
TTITLE0=冬が来た
TTITLE1=悲しみのカウントダウン
TTITLE2=冬が来た(KARAOKE)
EXTD=YEAR: 1994
EXTT0=
EXTT1=
EXTT2=
PLAYORDER=
